<svg xmlns="http://www.w3.org/2000/svg"><symbol viewBox="0 0 16 16" id="icon--arrow-download"><title>arrow-download</title><path d="M11.5 8.5L8 12 4.5 8.5M8 12V0"/><path d="M.5 7.5v7h15v-7"/></symbol><symbol viewBox="0 0 16 12" id="icon--arrow-right-bent"><title>arrow-right-bent</title><path d="M11.5 4.5L15 8l-3.5 3.5"/><path d="M15 8H1V0"/></symbol><symbol viewBox="0 0 16 8" id="icon--arrow-right"><title>arrow-right</title><path d="M11.5.5L15 4l-3.5 3.5M15 4H0"/></symbol><symbol viewBox="0 0 32 50" id="icon--arrow-up"><title>arrow-up</title><path d="M1 15.83l15-15 15 15m-15-15v49"/></symbol><symbol viewBox="0 0 44 44" id="icon--blob"><title>blob</title><style>.st0{fill:#ff4b38}</style><path class="st0" d="M1.8 11.8c-5.6 11.8 8.9 29.7 24 29.7S47.3 22.3 41 11.8C36 3.3 9.4-4 1.8 11.8z"/></symbol></svg>